<svg fill="none" height="46" viewBox="0 0 241 46" width="241" xmlns="http://www.w3.org/2000/svg"><g fill="#fff"><path clip-rule="evenodd" d="m36.0745 9.92551c-7.2209-7.22091-18.9283-7.22091-26.14924 0-6.1921 6.19209-7.07628 15.68839-2.64373 22.82129.65732 1.0577.33271 2.448-.72505 3.1054-1.05775.6573-2.44809.3327-3.10541-.7251-5.51387-8.8729-4.421718-20.6835 3.28526-28.39052 8.98207-8.98211 23.54497-8.98211 32.52707 0 8.9821 8.98212 8.9821 23.54502 0 32.52712-7.707 7.707-19.5176 8.7991-28.3905 3.2852-1.05777-.6573-1.38239-2.0476-.7251-3.1054.6573-1.0577 2.0477-1.3824 3.1054-.725 7.1329 4.4325 16.6292 3.5483 22.8213-2.6438 7.2209-7.2209 7.2209-18.9283 0-26.14919z" fill-rule="evenodd"/><path d="m12.3681 39.9913c7.2963 5.7276 17.3424 3.0852 24.0253-3.5977 7.2209-7.2209 7.2209-19.5661 0-26.78698-7.2209-7.22091-19.5661-7.22091-26.78703 0-6.68292 6.68288-9.054946 16.54978-3.32714 23.84598l.00062-.0006c-5.68242-7.2554-3.03577-16.8453 3.64541-23.52649 2.23024-2.23028 4.89434-3.7747 7.72294-4.62748l1.2915-.38938.9538.95384c3.6229 3.62291 5.1627 8.04091 4.8092 12.49411-.0981 1.2346-.34 2.4576-.7141 3.6549 1.1974-.374 2.4203-.616 3.6549-.714 4.4533-.3536 8.8712 1.1862 12.4941 4.8091l.9539.9538-.3894 1.2916c-.8528 2.8286-2.3973 5.4925-4.6276 7.7227-6.6812 6.6812-16.4504 9.5984-23.7058 3.916z"/><path d="m20.207 17.9997c-.2498 3.1465-1.8377 6.4415-4.7014 9.3052l-3.858 3.8584c-3.93914-5.4639-3.45027-13.132 1.4666-18.0489 1.3405-1.3405 2.882-2.3499 4.5264-3.0312 2.018 2.464 2.7817 5.2038 2.5664 7.9165z"/><path d="m28.0004 25.7932c-3.1464.2498-6.4415 1.8376-9.3052 4.7013l-3.8584 3.8581c5.464 3.9391 13.132 3.4502 18.0489-1.4667 1.3405-1.3405 2.35-2.882 3.0313-4.5263-2.464-2.018-5.2038-2.7818-7.9166-2.5664z"/><path d="m232.542 38.1024 3.638-9.4706h1.208l3.612 9.4706h-1.154l-2.322-6.1423c-.063-.1714-.136-.3698-.217-.5953-.072-.2345-.154-.4736-.244-.7171-.082-.2525-.163-.4961-.245-.7306-.072-.2345-.14-.4419-.203-.6223h.271c-.072.2255-.149.4555-.231.69-.072.2255-.149.4555-.231.69-.081.2255-.162.451-.244.6764-.081.2255-.163.451-.244.6765l-2.308 6.0747zm1.547-2.6112.394-1.0282h4.494l.434 1.0282z"/><path d="m222.788 38.1024v-9.4706h1.059v8.4424h4.562v1.0282z"/><path d="m212.929 38.2377c-.67 0-1.29-.1173-1.86-.3518-.561-.2435-1.055-.5817-1.48-1.0147-.416-.4329-.742-.9425-.978-1.5288-.226-.5953-.339-1.2447-.339-1.9482 0-.7036.113-1.3485.339-1.9347.236-.5953.562-1.1095.978-1.5424.425-.442.919-.7802 1.48-1.0147.57-.2435 1.19-.3653 1.86-.3653.679 0 1.299.1218 1.86.3653.57.2345 1.063.5727 1.48 1.0147.425.4329.751.9471.977 1.5424.236.5862.353 1.2311.353 1.9347 0 .6945-.117 1.3394-.353 1.9347-.226.5862-.552 1.1004-.977 1.5423-.417.433-.91.7712-1.48 1.0147-.561.2345-1.181.3518-1.86.3518zm0-1.0418c.516 0 .991-.0902 1.425-.2706.444-.1894.824-.4554 1.141-.7982.317-.3427.561-.7441.733-1.2041.181-.469.272-.9786.272-1.5288 0-.5592-.091-1.0689-.272-1.5289-.172-.469-.416-.8749-.733-1.2176s-.697-.6088-1.141-.7982c-.434-.1894-.909-.2842-1.425-.2842s-.996.0948-1.439.2842c-.435.1894-.81.4555-1.127.7982s-.561.7486-.733 1.2176c-.172.46-.258.9697-.258 1.5289 0 .5502.086 1.0598.258 1.5288.172.46.416.8614.733 1.2041.317.3428.692.6088 1.127.7982.443.1804.923.2706 1.439.2706z"/><path d="m200.645 38.237c-.679 0-1.303-.1172-1.874-.3518-.57-.2435-1.063-.5817-1.479-1.0147-.417-.4419-.743-.9606-.978-1.5558-.226-.5953-.339-1.2448-.339-1.9483 0-.6945.113-1.3304.339-1.9076.235-.5863.566-1.0959.991-1.5289.426-.4419.919-.7801 1.48-1.0147.561-.2345 1.177-.3517 1.846-.3517.444 0 .883.0721 1.317.2164.435.1353.833.3248 1.195.5683.371.2435.675.5231.91.8388l-.733.7577c-.227-.2706-.489-.5051-.788-.7036-.289-.1984-.597-.3517-.923-.46-.326-.1082-.652-.1623-.978-.1623-.506 0-.982.0947-1.425.2841-.435.1804-.81.4374-1.127.7712-.317.3337-.566.7306-.747 1.1906-.172.46-.258.9605-.258 1.5017 0 .5592.086 1.0734.258 1.5424.181.469.435.8749.761 1.2176.334.3337.724.5953 1.167.7847.453.1804.955.2706 1.507.2706.326 0 .652-.0451.978-.1353.326-.0992.624-.2345.896-.4059.271-.1713.502-.3653.692-.5817l.543.8794c-.208.2525-.488.478-.841.6765-.344.1894-.725.3427-1.141.46-.416.1082-.833.1623-1.249.1623z"/><path d="m187.303 38.1024v-1.0012h1.534v-7.4682h-1.534v-1.0012h4.127v1.0012h-1.534v7.4682h1.534v1.0012z"/><path d="m175.665 38.1024v-9.4706h3.72c.552 0 1.05.1308 1.494.3924.452.2525.81.5998 1.072 1.0418.263.4419.394.9425.394 1.5017 0 .5232-.127.9967-.38 1.4206-.254.4239-.598.7622-1.032 1.0147-.435.2435-.923.3653-1.466.3653h-2.743v3.7341zm5.797 0-2.389-4.167 1.018-.3518 2.634 4.5188zm-4.738-4.7623h2.838c.335 0 .629-.0767.882-.23.254-.1534.453-.3608.597-.6224.145-.2706.218-.5772.218-.92 0-.3698-.086-.699-.258-.9876-.172-.2887-.412-.5141-.72-.6765-.299-.1624-.642-.2435-1.032-.2435h-2.525z"/><path d="m166.383 38.237c-.697 0-1.344-.1218-1.941-.3653s-1.122-.5818-1.575-1.0147-.806-.9425-1.059-1.5288c-.244-.5953-.367-1.2402-.367-1.9347s.123-1.3349.367-1.9212c.253-.5953.597-1.1094 1.032-1.5424.443-.4329.959-.7666 1.548-1.0011.597-.2436 1.235-.3653 1.914-.3653.48 0 .95.0676 1.412.2029.471.1353.896.3247 1.276.5683.38.2435.688.5186.923.8252l-.706.7171c-.253-.2616-.538-.4871-.855-.6765s-.652-.3382-1.005-.4464c-.344-.1083-.688-.1624-1.031-.1624-.535 0-1.032.0947-1.494.2841-.453.1894-.851.4555-1.195.7983-.344.3337-.611.7351-.801 1.2041-.19.46-.285.9651-.285 1.5153 0 .5321.095 1.0327.285 1.5017.199.46.475.8659.828 1.2177.362.3427.779.6088 1.25.7982.47.1894.977.2841 1.52.2841.426 0 .824-.0631 1.195-.1894.38-.1262.71-.3021.991-.5276.281-.2345.498-.5051.652-.8118.154-.3066.23-.6359.23-.9876v-.4736l.218.2706h-3.34v-1.0417h4.181c.01.0721.019.1578.028.257.009.0902.013.1849.013.2841.009.0902.014.1759.014.2571 0 .5863-.109 1.1275-.326 1.6235-.217.4871-.52.911-.91 1.2718-.38.3518-.823.6269-1.33.8253-.507.1894-1.059.2841-1.657.2841z"/><path d="m149.123 38.1024 3.639-9.4706h1.208l3.611 9.4706h-1.154l-2.321-6.1423c-.064-.1714-.136-.3698-.217-.5953-.073-.2345-.154-.4736-.245-.7171-.081-.2525-.163-.4961-.244-.7306-.073-.2345-.141-.4419-.204-.6223h.272c-.073.2255-.15.4555-.231.69-.073.2255-.15.4555-.231.69-.081.2255-.163.451-.244.6764-.082.2255-.163.451-.245.6765l-2.308 6.0747zm1.548-2.6112.394-1.0282h4.493l.435 1.0282z"/><path d="m129.937 38.1024 3.638-9.4706h1.208l3.612 9.4706h-1.154l-2.322-6.1423c-.063-.1714-.136-.3698-.217-.5953-.072-.2345-.154-.4736-.244-.7171-.082-.2525-.163-.4961-.245-.7306-.072-.2345-.14-.4419-.203-.6223h.271c-.072.2255-.149.4555-.231.69-.072.2255-.149.4555-.23.69-.082.2255-.163.451-.245.6764-.081.2255-.163.451-.244.6765l-2.308 6.0747zm1.547-2.6112.394-1.0282h4.494l.434 1.0282z"/><path d="m122.876 38.1024v-8.4423h-2.716v-1.0283h6.599v1.0283h-2.824v8.4423z"/><path d="m109.901 38.1024v-9.4706h5.757v1.0283h-4.698v7.4141h4.671v1.0282zm.489-4.3564v-1.0283h4.508v1.0283z"/><path d="m100.298 38.1024v-1.0012h1.534v-7.4682h-1.534v-1.0012h4.127v1.0012h-1.534v7.4682h1.534v1.0012z"/><path d="m92.3853 38.237c-.6789 0-1.3034-.1172-1.8736-.3518-.5702-.2435-1.0635-.5817-1.4799-1.0147-.4164-.4419-.7422-.9606-.9775-1.5558-.2263-.5953-.3395-1.2448-.3395-1.9483 0-.6945.1132-1.3304.3395-1.9076.2353-.5863.5657-1.0959.9911-1.5289.4254-.4419.9187-.7801 1.4799-1.0147.5611-.2345 1.1766-.3517 1.8464-.3517.4435 0 .8825.0721 1.317.2164.4344.1353.8327.3248 1.1947.5683.3711.2435.6744.5231.9097.8388l-.7332.7577c-.2262-.2706-.4887-.5051-.7874-.7036-.2897-.1984-.5974-.3517-.9233-.46-.3258-.1082-.6516-.1623-.9775-.1623-.5069 0-.982.0947-1.4256.2841-.4344.1804-.81.4374-1.1268.7712-.3168.3337-.5657.7306-.7468 1.1906-.1719.46-.2579.9605-.2579 1.5017 0 .5592.086 1.0734.2579 1.5424.1811.469.4345.8749.7603 1.2176.3349.3337.7241.5953 1.1676.7847.4526.1804.955.2706 1.5071.2706.3258 0 .6517-.0451.9775-.1353.3259-.0992.6246-.2345.8961-.4059.2715-.1713.5023-.3653.6924-.5817l.5431.8794c-.2082.2525-.4888.478-.8418.6765-.3439.1894-.7241.3427-1.1404.46-.4164.1082-.8328.1623-1.2491.1623z"/><path d="m78.5885 38.2377c-.6698 0-1.2898-.1173-1.86-.3518-.5612-.2435-1.0545-.5817-1.4799-1.0147-.4164-.4329-.7422-.9425-.9775-1.5288-.2263-.5953-.3395-1.2447-.3395-1.9482 0-.7036.1132-1.3485.3395-1.9347.2353-.5953.5611-1.1095.9775-1.5424.4254-.442.9187-.7802 1.4799-1.0147.5702-.2435 1.1902-.3653 1.86-.3653.6789 0 1.2989.1218 1.86.3653.5703.2345 1.0636.5727 1.4799 1.0147.4254.4329.7513.9471.9776 1.5424.2353.5862.353 1.2311.353 1.9347 0 .6945-.1177 1.3394-.353 1.9347-.2263.5862-.5522 1.1004-.9776 1.5423-.4163.433-.9096.7712-1.4799 1.0147-.5611.2345-1.1811.3518-1.86.3518zm0-1.0418c.5159 0 .9911-.0902 1.4256-.2706.4435-.1894.8236-.4554 1.1404-.7982.3168-.3427.5612-.7441.7332-1.2041.181-.469.2715-.9786.2715-1.5288 0-.5592-.0905-1.0689-.2715-1.5289-.172-.469-.4164-.8749-.7332-1.2176s-.6969-.6088-1.1404-.7982c-.4345-.1894-.9097-.2842-1.4256-.2842s-.9956.0948-1.4391.2842c-.4345.1894-.8101.4555-1.1269.7982s-.5612.7486-.7332 1.2176c-.1719.46-.2579.9697-.2579 1.5289 0 .5502.086 1.0598.2579 1.5288.172.46.4164.8614.7332 1.2041.3168.3428.6924.6088 1.1269.7982.4435.1804.9232.2706 1.4391.2706z"/><path d="m66.0519 38.2377c-.4797 0-.9322-.0676-1.3576-.2029s-.8147-.3383-1.1677-.6089-.6652-.6043-.9368-1.0011l.7332-.8118c.4254.6043.8599 1.0282 1.3034 1.2718.4525.2435.9594.3653 1.5206.3653.4073 0 .7784-.0677 1.1133-.203s.5974-.3247.7875-.5682c.19-.2436.2851-.5232.2851-.8388 0-.2075-.0362-.3924-.1087-.5548-.0633-.1623-.1629-.3066-.2986-.4329-.1358-.1263-.3033-.239-.5024-.3382s-.4299-.1894-.6924-.2706c-.2534-.0812-.5386-.1624-.8554-.2435-.4616-.1083-.8689-.2346-1.2219-.3789-.3439-.1533-.6381-.3382-.8825-.5547-.2353-.2164-.4163-.4645-.543-.7441-.1177-.2886-.1765-.6269-.1765-1.0147 0-.3698.0769-.7126.2308-1.0282.1629-.3157.3846-.5863.6652-.8118.2806-.2345.611-.4149.9911-.5412.3802-.1263.7875-.1894 1.222-.1894.4887 0 .9232.0677 1.3033.2029.3892.1263.7332.3157 1.0319.5683.2987.2525.5566.5547.7739.9065l-.7468.7305c-.19-.2976-.4073-.5547-.6516-.7711-.2354-.2165-.4979-.3789-.7875-.4871-.2806-.1172-.5929-.1759-.9368-.1759-.3983 0-.7513.0677-1.059.203-.2987.1353-.534.3247-.706.5682-.172.2345-.258.5051-.258.8118 0 .2255.0408.4284.1222.6088.0815.1714.2082.3247.3802.46.181.1263.4118.2435.6924.3518.2896.0992.6336.1939 1.0318.2841.4707.1082.8916.239 1.2627.3923.3801.1534.7015.3383.9639.5547.2716.2075.4752.451.611.7306.1448.2796.2172.5998.2172.9606 0 .5592-.1403 1.0508-.4208 1.4747-.2806.4149-.6744.7396-1.1812.9741-.4979.2345-1.0817.3518-1.7515.3518z"/><path d="m236.073 20.1604c-1.63 0-2.868-1.2664-2.868-2.9061v-2.6626c0-1.6398 1.238-2.9062 2.868-2.9062h1.596c1.629 0 2.868 1.2664 2.868 2.9062v2.6626c0 1.6397-1.239 2.9061-2.868 2.9061zm.195-1.2664h1.206c.945 0 1.596-.7468 1.596-1.8346v-2.2729c0-1.0878-.651-1.8346-1.596-1.8346h-1.206c-.945 0-1.597.7468-1.597 1.8346v2.2729c0 1.0878.652 1.8346 1.597 1.8346z"/><path d="m228.97 10.0295v-1.46114h1.564v1.46114zm.049 10.0334v-8.28h1.466v8.28z"/><path d="m222.891 20.0632-2.721-7.8903v-.3897h1.418l1.173 3.4094c.375 1.104.7 2.208 1.026 3.3607h.065c.326-1.1527.652-2.2567 1.027-3.3607l1.173-3.4094h1.417v.3897l-2.72 7.8903z"/><path d="m216.815 10.0295v-1.46114h1.564v1.46114zm.049 10.0334v-8.28h1.466v8.28z"/><path d="m209.091 20.063v-8.28h1.434v1.039h.065c.407-.763 1.124-1.1365 2.15-1.1365.945 0 1.63.3085 2.281 1.0229l-.928.9254h-.196c-.342-.4546-.815-.6819-1.483-.6819-1.221 0-1.857.7468-1.857 2.208v4.9031z"/><path d="m199.082 20.0629v-11.49454h4.464c1.809 0 3.063 1.03906 3.063 2.51644v.9904c0 .8929-.538 1.7209-1.336 2.0294v.0649c.945.2923 1.532 1.1365 1.532 2.1918v1.1852c0 1.4774-1.255 2.5164-3.063 2.5164zm1.564-6.5265h2.705c1.059 0 1.694-.5358 1.694-1.4612v-.7955c0-.8768-.587-1.34758-1.694-1.34758h-2.705zm0 5.1628h2.9c1.108 0 1.694-.4708 1.694-1.3475v-.9904c0-.9254-.635-1.4612-1.694-1.4612h-2.9z"/><path d="m186.989 20.1604c-1.776 0-3.047-1.1527-3.047-2.7925 0-1.38.913-2.2729 2.33-2.2729h3.161v-.7144c0-.8929-.538-1.4287-1.434-1.4287h-1.01c-.701 0-1.059.1624-1.45.6819h-.195l-.929-.9254c.668-.7306 1.336-1.0229 2.346-1.0229h1.597c1.45 0 2.541 1.0878 2.541 2.5328v5.8447h-1.434v-1.0391h-.065c-.488.7306-1.352 1.1365-2.411 1.1365zm.179-1.2664c1.32 0 2.265-.9254 2.265-2.208v-.3247h-2.982c-.651 0-.993.341-.993 1.0066 0 .9254.651 1.5261 1.71 1.5261z"/><path d="m181.232 20.1604c-1.157 0-1.988-.828-1.988-1.9807v-9.61134h1.466v9.61134c0 .4383.277.7143.717.7143.245 0 .456-.0812.603-.2273h.196l.896.893c-.391.3896-.929.6007-1.499.6007z"/><path d="m172.394 20.1604c-1.629 0-2.868-1.2664-2.868-2.9061v-2.6626c0-1.6398 1.239-2.9062 2.868-2.9062h1.596c1.63 0 2.868 1.2664 2.868 2.9062v2.6626c0 1.6397-1.238 2.9061-2.868 2.9061zm.195-1.2664h1.206c.945 0 1.597-.7468 1.597-1.8346v-2.2729c0-1.0878-.652-1.8346-1.597-1.8346h-1.206c-.945 0-1.596.7468-1.596 1.8346v2.2729c0 1.0878.651 1.8346 1.596 1.8346z"/><path d="m164.065 20.1604c-1.63 0-2.868-1.2664-2.868-2.9061v-2.6626c0-1.6398 1.238-2.9062 2.868-2.9062h1.368c1.01 0 1.678.2923 2.346 1.0229l-.928.9254h-.196c-.391-.5195-.749-.6819-1.45-.6819h-.945c-.945 0-1.596.7468-1.596 1.8346v2.2729c0 1.0878.651 1.8346 1.596 1.8346h.994c.701 0 1.059-.1623 1.45-.6819h.196l.928.9254c-.668.7306-1.336 1.0229-2.346 1.0229z"/><path d="m156.963 10.0295v-1.46114h1.564v1.46114zm.049 10.0334v-8.28h1.466v8.28z"/><path d="m149.238 20.063v-8.28h1.434v1.039h.065c.407-.763 1.124-1.1365 2.151-1.1365.945 0 1.629.3085 2.281 1.0229l-.929.9254h-.196c-.342-.4546-.814-.6819-1.482-.6819-1.222 0-1.857.7468-1.857 2.208v4.9031z"/><path d="m141.962 23.5373c-1.515 0-2.541-.8767-2.541-2.1755 0-.9417.538-1.6073 1.597-1.932-.375-.2598-.587-.6657-.587-1.1203 0-.5032.261-.9254.717-1.1851v-.0325c-.717-.4546-1.141-1.2339-1.141-2.1268v-.7468c0-1.4288 1.108-2.5328 2.542-2.5328h4.708v1.2664h-1.45c.343.3409.489.7306.489 1.2664v.7468c0 1.4287-1.108 2.5327-2.541 2.5327h-1.32c-.505 0-.815.211-.815.552 0 .3247.277.552.685.552h2.623c1.45 0 2.525 1.0715 2.525 2.5327 0 1.4125-1.026 2.4028-2.525 2.4028zm.783-7.3059h.814c.733 0 1.271-.5682 1.271-1.315v-.6494c0-.7631-.538-1.3151-1.271-1.3151h-.814c-.734 0-1.271.552-1.271 1.3151v.6494c0 .7468.537 1.315 1.271 1.315zm-.734 6.0396h2.868c.651 0 1.108-.4546 1.108-1.104 0-.6332-.457-1.104-1.108-1.104h-2.607c-.896 0-1.417.4058-1.417 1.104 0 .6494.472 1.104 1.156 1.104z"/><path d="m128.837 20.0629v-.3896l4.057-11.10494h1.955l4.057 11.10494v.3896h-1.418l-1.075-2.9872h-5.083l-1.076 2.9872zm2.981-4.351h4.106c-.668-1.8671-1.336-3.7504-2.02-5.77978h-.065c-.685 2.02938-1.353 3.91268-2.021 5.77978z"/><path d="m117.918 20.1604c-1.776 0-3.047-1.1527-3.047-2.7925 0-1.38.912-2.2729 2.33-2.2729h3.161v-.7144c0-.8929-.538-1.4287-1.434-1.4287h-1.01c-.701 0-1.059.1624-1.45.6819h-.196l-.928-.9254c.668-.7306 1.336-1.0229 2.346-1.0229h1.596c1.45 0 2.542 1.0878 2.542 2.5328v5.8447h-1.434v-1.0391h-.065c-.489.7306-1.352 1.1365-2.411 1.1365zm.179-1.2664c1.32 0 2.265-.9254 2.265-2.208v-.3247h-2.982c-.652 0-.994.341-.994 1.0066 0 .9254.652 1.5261 1.711 1.5261z"/><path d="m108.23 20.1604c-1.629 0-2.868-1.2664-2.868-2.9062v-2.6625c0-1.6398 1.239-2.9062 2.868-2.9062h1.205c.766 0 1.418.3734 1.825 1.0066h.065v-4.12374h1.467v11.49454h-1.434v-.9091h-.065c-.408.6331-1.092 1.0066-1.858 1.0066zm.195-1.2664h1.01c1.141 0 1.89-.9416 1.89-2.3703v-1.2015c0-1.4287-.749-2.3703-1.89-2.3703h-1.01c-.945 0-1.596.7468-1.596 1.8346v2.2729c0 1.0878.651 1.8346 1.596 1.8346z"/><path d="m95.749 20.063v-8.28h1.4337v1.039h.0652c.391-.7143 1.0753-1.1365 1.8573-1.1365h1.0098c1.63 0 2.868 1.2664 2.868 2.9062v5.4713h-1.467v-5.2765c0-1.0878-.651-1.8346-1.5962-1.8346h-.8146c-1.173 0-1.8899.828-1.8899 2.208v4.9031z"/><path d="m89.345 20.1604c-1.6292 0-2.8675-1.2664-2.8675-2.9061v-2.6626c0-1.6398 1.2383-2.9062 2.8675-2.9062h1.2708c1.6292 0 2.8674 1.2664 2.8674 2.9062v1.7696h-5.5394v.6981c0 1.0878.6517 1.8346 1.5967 1.8346h1.1893c.7006 0 1.059-.1623 1.45-.6819h.1955l.9287.9254c-.668.7306-1.336 1.0229-2.3461 1.0229zm-1.4012-5.0654h4.0731v-.3085c0-1.0878-.6517-1.8346-1.5966-1.8346h-.8798c-.945 0-1.5967.7468-1.5967 1.8346z"/><path d="m82.2422 10.0295v-1.46114h1.564v1.46114zm.0489 10.0334v-8.28h1.4663v8.28z"/><path d="m73.665 20.0632v-1.0878l4.2197-5.796v-.0324h-4.073v-1.3638h5.9141v1.3638l-4.0242 5.52v.0324h4.0567v1.3638z"/><path d="m62 20.0629v-.3896l4.0568-11.10494h1.955l4.0568 11.10494v.3896h-1.4174l-1.0753-2.9872h-5.0832l-1.0753 2.9872zm2.9815-4.351h4.1056c-.668-1.8671-1.3359-3.7504-2.0202-5.77978h-.0652c-.6843 2.02938-1.3522 3.91268-2.0202 5.77978z"/><path d="m137.581 28.6318h.968l.682 1.7877h-.969z"/></g></svg>