<svg fill="none" height="32" viewBox="0 0 32 32" width="32" xmlns="http://www.w3.org/2000/svg"><g fill="#346656"><path clip-rule="evenodd" d="m25.0953 6.9047c-5.0232-5.02324-13.1675-5.02324-18.19077 0-4.30755 4.3076-4.92263 10.9137-1.83912 15.8757.45727.7358.23145 1.703-.50438 2.1602-.73583.4573-1.70302.2315-2.16028-.5043-3.83574-6.1725-3.075983-14.3886 2.28539-19.74998 6.24846-6.24843 16.37916-6.24843 22.62756 0 6.2484 6.24838 6.2484 16.37908 0 22.62758-5.3614 5.3613-13.5775 6.1211-19.74996 2.2854-.73583-.4573-.96165-1.4245-.50438-2.1603.45726-.7359 1.42446-.9617 2.16028-.5044 4.96196 3.0835 11.56806 2.4684 15.87566-1.8391 5.0232-5.0233 5.0232-13.1676 0-18.1908z" fill-rule="evenodd"/><path d="m8.60391 27.82c5.07569 3.9845 12.06429 2.1463 16.71319-2.5027 5.0233-5.0232 5.0233-13.6112 0-18.63444-5.0232-5.02324-13.6112-5.02324-18.63441 0-4.64899 4.64904-6.299091 11.51284-2.31453 16.58854l.00043-.0004c-3.952987-5.0472-2.11184-11.7185 2.53594-16.3663 1.5515-1.55149 3.40477-2.62588 5.37247-3.21912l.8984-.27087.6636.66355c2.5203 2.52028 3.5914 5.59366 3.3455 8.69154-.0682.8589-.2366 1.7096-.4968 2.5426.833-.2603 1.6837-.4286 2.5426-.4968 3.0979-.2459 6.1713.8252 8.6915 3.3455l.6636.6636-.2709.8984c-.5932 1.9677-1.6677 3.8209-3.2192 5.3724-4.6478 4.6477-11.4438 6.6771-16.49098 2.7241z"/><path d="m14.057 12.5215c-.1737 2.1889-1.2783 4.4811-3.2705 6.4732l-2.68384 2.6841c-2.74026-3.801-2.40017-9.1353 1.02026-12.55571.93258-.93255 2.00488-1.63475 3.14878-2.10871 1.4038 1.71409 1.9351 3.62002 1.7853 5.50712z"/><path d="m19.4786 17.9431c-2.1889.1737-4.4811 1.2783-6.4732 3.2705l-2.6841 2.6838c3.801 2.7403 9.1353 2.4002 12.5557-1.0202.9326-.9326 1.6348-2.0049 2.1087-3.1488-1.7141-1.4038-3.62-1.9351-5.5071-1.7853z"/></g></svg>