<svg width="32" height="32" viewBox="0 0 32 32" fill="none" xmlns="http://www.w3.org/2000/svg">
<path fill-rule="evenodd" clip-rule="evenodd" d="M25.0953 6.9047C20.0721 1.88146 11.9278 1.88146 6.90453 6.9047C2.59698 11.2123 1.9819 17.8184 5.06541 22.7804C5.52268 23.5162 5.29686 24.4834 4.56103 24.9406C3.8252 25.3979 2.85801 25.1721 2.40075 24.4363C-1.43499 18.2638 -0.675233 10.0477 4.68614 4.68632C10.9346 -1.56211 21.0653 -1.56211 27.3137 4.68632C33.5621 10.9347 33.5621 21.0654 27.3137 27.3139C21.9523 32.6752 13.7362 33.435 7.56374 29.5993C6.82791 29.142 6.60209 28.1748 7.05936 27.439C7.51662 26.7031 8.48382 26.4773 9.21964 26.9346C14.1816 30.0181 20.7877 29.403 25.0953 25.0955C30.1185 20.0722 30.1185 11.9279 25.0953 6.9047Z" fill="white"/>
<path d="M8.60391 27.82C13.6796 31.8045 20.6682 29.9663 25.3171 25.3173C30.3404 20.2941 30.3404 11.7061 25.3171 6.68286C20.2939 1.65962 11.7059 1.65962 6.68269 6.68286C2.0337 11.3319 0.383599 18.1957 4.36816 23.2714L4.36859 23.271C0.415603 18.2238 2.25675 11.5525 6.90453 6.9047C8.45603 5.35321 10.3093 4.27882 12.277 3.68558L13.1754 3.41471L13.839 4.07826C16.3593 6.59854 17.4304 9.67192 17.1845 12.7698C17.1163 13.6287 16.9479 14.4794 16.6877 15.3124C17.5207 15.0521 18.3714 14.8838 19.2303 14.8156C22.3282 14.5697 25.4016 15.6408 27.9218 18.1611L28.5854 18.8247L28.3145 19.7231C27.7213 21.6908 26.6468 23.544 25.0953 25.0955C20.4475 29.7432 13.6515 31.7726 8.60432 27.8196L8.60391 27.82Z" fill="white"/>
<path d="M14.057 12.5215C13.8833 14.7104 12.7787 17.0026 10.7865 18.9947L8.10266 21.6788C5.3624 17.8778 5.70249 12.5435 9.12292 9.12309C10.0555 8.19054 11.1278 7.48834 12.2717 7.01438C13.6755 8.72847 14.2068 10.6344 14.057 12.5215Z" fill="white"/>
<path d="M19.4786 17.9431C17.2897 18.1168 14.9975 19.2214 13.0054 21.2136L10.3213 23.8974C14.1223 26.6377 19.4566 26.2976 22.877 22.8772C23.8096 21.9446 24.5118 20.8723 24.9857 19.7284C23.2716 18.3246 21.3657 17.7933 19.4786 17.9431Z" fill="white"/>
</svg>
