<svg width="103" height="102" viewBox="0 0 103 102" fill="none" xmlns="http://www.w3.org/2000/svg">
<circle cx="51" cy="51" r="50" fill="white"/>
<path fill-rule="evenodd" clip-rule="evenodd" d="M79.9908 22.0086C63.9793 5.99713 38.0196 5.99713 22.0081 22.0086C8.27783 35.7389 6.31726 56.7957 16.1459 72.612C17.6034 74.9574 16.8836 78.0403 14.5382 79.4979C12.1928 80.9554 9.10985 80.2356 7.65233 77.8901C-4.57401 58.2156 -2.1523 32.0269 14.937 14.9376C34.8537 -4.97919 67.1452 -4.97919 87.0619 14.9376C106.979 34.8543 106.979 67.1457 87.0619 87.0624C69.9726 104.152 43.7839 106.573 24.1093 94.3471C21.7639 92.8896 21.0441 89.8067 22.5016 87.4612C23.9591 85.1158 27.042 84.396 29.3875 85.8535C45.2037 95.6822 66.2606 93.7216 79.9908 79.9914C96.0023 63.9799 96.0023 38.0201 79.9908 22.0086Z" fill="#346656"/>
<path d="M27.4248 88.6758C43.6033 101.376 65.8795 95.517 80.6979 80.6985C96.7094 64.687 96.7094 37.313 80.6979 21.3015C64.6864 5.29002 37.3125 5.29002 21.301 21.3015C6.4824 36.1201 1.22272 57.9986 13.9234 74.1771L13.9248 74.1758C1.32473 58.0879 7.19336 36.8233 22.0081 22.0086C26.9534 17.0633 32.8606 13.6387 39.1327 11.7477L41.9965 10.8843L44.1115 12.9994C52.1449 21.0327 55.5591 30.8291 54.7752 40.7036C54.5578 43.4412 54.0213 46.1529 53.1918 48.8079C55.8468 47.9785 58.5586 47.4419 61.2962 47.2246C71.1707 46.4406 80.967 49.8549 89.0004 57.8882L91.1154 60.0033L90.252 62.8671C88.3611 69.1391 84.9362 75.046 79.9908 79.9914C65.1761 94.8061 43.514 101.275 27.4261 88.6745L27.4248 88.6758Z" fill="#346656"/>
<path d="M44.8065 39.9122C44.2526 46.8891 40.7318 54.1955 34.3819 60.5454L25.8271 69.1009C17.0926 56.9853 18.1766 39.9822 29.0791 29.0797C32.0516 26.1072 35.4697 23.869 39.1158 22.3582C43.5905 27.8219 45.2841 33.897 44.8065 39.9122Z" fill="#346656"/>
<path d="M62.0876 57.1932C55.1107 57.7471 47.8043 61.268 41.4544 67.6179L32.8988 76.1727C45.0145 84.9072 62.0175 83.8232 72.9201 72.9206C75.8926 69.9481 78.1308 66.53 79.6416 62.884C74.1779 58.4093 68.1028 56.7157 62.0876 57.1932Z" fill="#346656"/>
</svg>
